<svg width="1168" height="227" viewBox="0 0 1168 227" fill="none" xmlns="http://www.w3.org/2000/svg">
<mask id="mask0_1_401" style="mask-type:alpha" maskUnits="userSpaceOnUse" x="0" y="25" width="480" height="202">
<rect x="479.5" y="26.156" width="200.344" height="479" transform="rotate(90 479.5 26.156)" fill="url(#paint0_linear_1_401)" stroke="#6246E5"/>
</mask>
<g mask="url(#mask0_1_401)">
<path d="M129.995 283.066C95.2594 283.066 63.8368 275.201 41.1157 262.511C18.3782 249.811 4.45579 232.346 4.45579 213.169C4.45579 193.993 18.3782 176.527 41.1157 163.828C63.8368 151.138 95.2594 143.273 129.995 143.273C164.731 143.273 196.154 151.138 218.875 163.828C241.612 176.527 255.535 193.993 255.535 213.169C255.535 232.346 241.612 249.811 218.875 262.511C196.154 275.201 164.731 283.066 129.995 283.066Z" stroke="#E5E5E5"/>
<path d="M143.263 285.844C104.405 285.844 69.2511 277.046 43.829 262.847C18.3906 248.639 2.79748 229.09 2.79748 207.611C2.79748 186.132 18.3906 166.583 43.829 152.375C69.2511 138.176 104.405 129.378 143.263 129.378C182.12 129.378 217.274 138.176 242.696 152.375C268.135 166.583 283.728 186.132 283.728 207.611C283.728 229.09 268.135 248.639 242.696 262.847C217.274 277.046 182.12 285.844 143.263 285.844Z" stroke="#E5E5E5"/>
<path d="M154.042 288.624C111.521 288.624 73.0502 278.996 45.2272 263.456C17.3878 247.907 0.309745 226.506 0.309747 202.98C0.309749 179.455 17.3878 158.054 45.2272 142.504C73.0502 126.965 111.521 117.337 154.042 117.337C196.563 117.337 235.034 126.965 262.857 142.504C290.697 158.054 307.775 179.455 307.775 202.98C307.775 226.506 290.697 247.907 262.857 263.456C235.034 278.996 196.563 288.624 154.042 288.624Z" stroke="#E5E5E5"/>
<path d="M169.798 290.476C124.071 290.476 82.6976 280.123 52.7738 263.41C22.8336 246.687 4.4562 223.664 4.4562 198.349C4.4562 173.033 22.8336 150.011 52.7738 133.288C82.6976 116.575 124.071 106.222 169.798 106.222C215.524 106.222 256.897 116.575 286.821 133.288C316.761 150.011 335.139 173.033 335.139 198.349C335.139 223.664 316.761 246.687 286.821 263.41C256.897 280.123 215.524 290.476 169.798 290.476Z" stroke="#E5E5E5"/>
<path d="M185.138 292.329C136.32 292.329 92.148 281.276 60.1984 263.431C28.2324 245.577 8.60204 220.991 8.60204 193.949C8.60205 166.907 28.2324 142.321 60.1984 124.467C92.148 106.622 136.32 95.5696 185.138 95.5696C233.956 95.5696 278.127 106.622 310.077 124.467C342.043 142.321 361.673 166.907 361.673 193.949C361.673 220.991 342.043 245.577 310.077 263.431C278.127 281.276 233.956 292.329 185.138 292.329Z" stroke="#E5E5E5"/>
<path d="M202.551 294.645C148.924 294.645 100.399 282.503 65.2986 262.898C30.1815 243.284 8.60204 216.267 8.60204 186.539C8.60204 156.811 30.1815 129.794 65.2986 110.18C100.399 90.5753 148.924 78.4338 202.551 78.4338C256.178 78.4338 304.703 90.5753 339.803 110.18C374.921 129.794 396.5 156.811 396.5 186.539C396.5 216.267 374.921 243.284 339.803 262.898C304.703 282.503 256.178 294.645 202.551 294.645Z" stroke="#E5E5E5"/>
</g>
<path d="M1161.18 9.30309C1151.92 6.21879 1136.65 13.6479 1132.77 15.6725C1133.55 14.3885 1134.91 13.2369 1136.71 12.326C1136.75 12.3076 1136.78 12.2838 1136.81 12.2567C1136.83 12.2295 1136.84 12.1998 1136.84 12.1699C1136.84 12.1411 1136.82 12.1128 1136.8 12.0875C1136.78 12.0621 1136.74 12.0406 1136.7 12.0249C1135.84 11.7015 1134.83 11.5233 1133.8 11.5117C1134.33 11.1457 1135.01 10.8575 1135.79 10.6719C1136.57 10.4863 1137.41 10.4089 1138.26 10.4465C1138.32 10.4516 1138.38 10.4464 1138.44 10.4315C1138.5 10.4166 1138.54 10.3927 1138.58 10.3628C1138.61 10.3323 1138.62 10.2976 1138.62 10.2624C1138.62 10.2272 1138.61 10.1925 1138.58 10.162C1138.17 9.8171 1137.6 9.53849 1136.94 9.35438C1136.28 9.17026 1135.54 9.08715 1134.8 9.11346C1136.11 8.55572 1139.08 8.35494 1140.28 8.33263C1140.34 8.33227 1140.4 8.32153 1140.46 8.30172C1140.51 8.28191 1140.55 8.25389 1140.58 8.22108C1140.6 8.18911 1140.61 8.15399 1140.6 8.11956C1140.59 8.08513 1140.57 8.05272 1140.53 8.02586C1139.37 7.27463 1137.73 6.80781 1135.96 6.72634C1137.62 5.61086 1142.54 5.27621 1142.59 5.27063C1142.66 5.26762 1142.72 5.25179 1142.78 5.22557C1142.83 5.19936 1142.86 5.16423 1142.88 5.12563C1142.89 5.10402 1142.9 5.08081 1142.9 5.05734C1142.9 5.03387 1142.89 5.01059 1142.88 4.98883C1142.86 4.96707 1142.84 4.94726 1142.81 4.93053C1142.78 4.91381 1142.75 4.9005 1142.71 4.89137C1141.15 4.33706 1139.38 3.99156 1137.54 3.88186C1139.54 2.49867 1145.9 1.6509 1145.97 1.6509C1146.03 1.64205 1146.1 1.62177 1146.14 1.59285C1146.19 1.56392 1146.22 1.52772 1146.23 1.48916C1146.23 1.45111 1146.22 1.41262 1146.19 1.37877C1146.16 1.34493 1146.11 1.3173 1146.05 1.29953C1141.79 0.0613438 1136.59 1.26606 1136.35 1.29953C1130.35 2.97274 1130.08 8.52225 1130.71 12.3651C1128.35 7.6968 1123.22 0.38484 1114.15 0C1113.85 0 1106.78 -1.30316e-05 1102.9 2.54886C1102.86 2.57988 1102.84 2.61689 1102.84 2.65483C1102.84 2.69277 1102.86 2.72978 1102.9 2.7608C1102.93 2.79415 1102.98 2.82096 1103.05 2.83784C1103.11 2.85472 1103.18 2.86091 1103.25 2.85562C1103.34 2.85562 1111.79 2.09151 1115.25 3.26276C1113.14 3.87317 1111.32 4.75911 1109.96 5.8451C1109.92 5.87783 1109.89 5.91677 1109.89 5.95665C1109.89 5.99654 1109.92 6.03546 1109.96 6.06819C1110 6.10011 1110.05 6.12423 1110.12 6.13721C1110.19 6.15019 1110.26 6.15141 1110.33 6.1407C1110.4 6.1407 1116.67 5.16466 1119.55 6.11282C1118.53 6.38696 1117.63 6.77146 1116.88 7.24367C1116.14 7.71588 1115.57 8.26628 1115.22 8.86247C1115.2 8.89637 1115.19 8.93289 1115.21 8.96756C1115.23 9.00223 1115.26 9.03355 1115.31 9.05768C1115.35 9.08285 1115.41 9.09999 1115.47 9.10694C1115.53 9.1139 1115.6 9.11035 1115.66 9.09673C1117.15 8.78997 1121.03 8.18204 1123.03 8.59477C1122.11 8.74419 1121.28 9.0309 1120.63 9.42402C1119.98 9.81715 1119.53 10.3018 1119.34 10.8257C1119.33 10.8606 1119.33 10.8964 1119.36 10.9289C1119.38 10.9614 1119.42 10.9894 1119.48 11.0098C1119.53 11.0274 1119.59 11.0367 1119.66 11.0367C1119.72 11.0367 1119.78 11.0274 1119.84 11.0098C1120.83 10.7257 1121.93 10.586 1123.04 10.6035C1124.15 10.6211 1125.24 10.7954 1126.2 11.1102C1124.95 11.3921 1123.88 11.8758 1123.13 12.4989C1123.1 12.5247 1123.09 12.5534 1123.09 12.5826C1123.09 12.6118 1123.1 12.6405 1123.13 12.6663C1123.15 12.6938 1123.17 12.7186 1123.21 12.7389C1123.25 12.7591 1123.3 12.7743 1123.35 12.7834C1126.29 13.3723 1128.91 14.3775 1130.95 15.7004C1126.01 14.6351 1109.25 11.4281 1103.37 15.7004C1103.23 15.8175 1099.92 18.6006 1101.37 21.328C1101.39 21.3645 1101.43 21.3969 1101.48 21.4208C1101.53 21.4447 1101.6 21.459 1101.67 21.4618H1101.72C1101.78 21.4582 1101.83 21.4461 1101.88 21.4266C1101.93 21.407 1101.97 21.3807 1102 21.3503C1102 21.3112 1104.92 17.7194 1107.94 16.8884C1107.76 17.9885 1108.04 19.0968 1108.78 20.1232C1108.8 20.1599 1108.84 20.1916 1108.9 20.2136C1108.96 20.2357 1109.03 20.247 1109.1 20.2459C1109.17 20.2454 1109.24 20.2321 1109.3 20.208C1109.35 20.184 1109.4 20.1504 1109.42 20.1121C1109.42 20.0842 1111.07 17.2509 1113.53 16.5202C1113.42 17.042 1113.49 17.5707 1113.75 18.076C1114.01 18.5813 1114.44 19.0534 1115.03 19.4651C1115.07 19.4925 1115.12 19.5128 1115.18 19.5237C1115.24 19.5346 1115.31 19.5355 1115.37 19.5265C1115.43 19.5195 1115.48 19.5025 1115.53 19.4777C1115.57 19.4529 1115.6 19.4214 1115.62 19.387C1115.91 18.6843 1116.88 16.9553 1118.25 16.3194C1118.04 16.7476 1118.04 17.199 1118.24 17.6273C1118.45 18.0557 1118.86 18.4455 1119.43 18.7568C1119.47 18.7802 1119.53 18.7962 1119.59 18.803C1119.65 18.8099 1119.72 18.8074 1119.78 18.7958C1119.84 18.7827 1119.89 18.7607 1119.93 18.7322C1119.97 18.7036 1119.99 18.6697 1120 18.6341C1120.1 18.13 1120.43 17.6478 1120.94 17.229C1121.45 16.8102 1122.14 16.4674 1122.95 16.2302C1122.75 16.8392 1122.87 17.4675 1123.31 18.0373C1123.33 18.064 1123.36 18.0877 1123.4 18.1061C1123.44 18.1246 1123.49 18.1374 1123.54 18.1433C1123.59 18.1495 1123.64 18.1492 1123.69 18.1424C1123.74 18.1357 1123.79 18.1226 1123.83 18.1042C1124.62 17.7586 1125.48 17.4683 1126.4 17.2397C1126 17.4458 1125.69 17.7001 1125.49 17.9833C1125.29 18.2665 1125.21 18.5711 1125.26 18.8739C1125.34 19.4056 1125.79 19.8975 1126.53 20.2415C1127.26 20.5856 1128.2 20.7537 1129.16 20.7089C1129.94 20.6705 1130.68 20.4881 1131.26 20.1902C1132.11 21.4283 1135.36 27.3627 1129.86 39.1533C1122.44 40.3971 1121.26 41.7022 1120.23 42.8567C1119.89 43.2762 1119.45 43.6654 1118.91 44.0112C1118.38 44.4234 1118.07 44.9079 1118.01 45.4116C1117.95 45.9154 1118.14 46.4188 1118.56 46.8669C1119.93 48.462 1124.44 50.2133 1138.1 49.5719C1147.5 49.1257 1153.29 47.8987 1155.31 45.9243C1155.72 45.5461 1155.96 45.1197 1156.03 44.6792C1156.09 44.2386 1155.96 43.796 1155.67 43.3865C1153.67 40.7206 1148.55 38.5621 1143.67 38.3C1142.89 33.9998 1140.5 23.9214 1134.84 19.8946C1135.08 19.9085 1135.32 19.9085 1135.56 19.8946C1136.51 19.8477 1137.39 19.592 1138.01 19.1832C1138.63 18.7745 1138.93 18.2461 1138.85 17.7138C1138.78 17.3138 1138.51 16.9334 1138.05 16.6221C1137.6 16.3108 1136.99 16.0829 1136.3 15.9681C1138.22 15.8747 1140.16 15.9749 1142.03 16.2637C1142.07 16.276 1142.12 16.2824 1142.17 16.2824C1142.22 16.2824 1142.27 16.276 1142.32 16.2637C1142.36 16.2482 1142.4 16.2269 1142.42 16.2016C1142.45 16.1763 1142.46 16.1478 1142.47 16.1187C1142.49 15.425 1142.14 14.7431 1141.47 14.161C1142.48 14.2145 1143.46 14.4082 1144.31 14.7246C1145.16 15.0411 1145.85 15.4703 1146.33 15.9737C1146.35 16.005 1146.4 16.0315 1146.45 16.0502C1146.5 16.0689 1146.56 16.0791 1146.63 16.0796C1146.69 16.0791 1146.75 16.0689 1146.8 16.0502C1146.86 16.0315 1146.9 16.005 1146.93 15.9737C1147.29 15.5222 1147.43 15.0242 1147.32 14.5329C1147.21 14.0417 1146.87 13.5757 1146.33 13.185C1148.21 13.4917 1150.53 15.0813 1151.33 15.7506C1151.36 15.7782 1151.41 15.8005 1151.46 15.8151C1151.52 15.8298 1151.58 15.8364 1151.64 15.8342V15.8342C1151.7 15.829 1151.76 15.8135 1151.81 15.7897C1151.86 15.766 1151.89 15.7349 1151.91 15.7004C1152.2 15.1472 1152.3 14.5669 1152.19 13.9927C1152.09 13.4185 1151.78 12.8616 1151.29 12.3539C1154.36 12.5212 1158.14 15.0924 1158.18 15.1426C1158.22 15.173 1158.28 15.1952 1158.35 15.2061C1158.42 15.2171 1158.49 15.2163 1158.56 15.204C1158.63 15.1916 1158.68 15.1666 1158.72 15.1332C1158.76 15.0999 1158.78 15.0599 1158.78 15.0199C1158.79 13.797 1158.27 12.5906 1157.28 11.5006C1160.99 11.6568 1166.62 14.7243 1166.68 14.7578C1166.73 14.7848 1166.79 14.8026 1166.86 14.8086C1166.93 14.8146 1166.99 14.8085 1167.06 14.7912C1167.12 14.7753 1167.17 14.749 1167.2 14.716C1167.24 14.6831 1167.25 14.6451 1167.25 14.6072C1166.82 11.5006 1161.43 9.39791 1161.18 9.30309ZM1143.29 40.319C1143.16 40.905 1142.72 41.4576 1142.05 41.9106C1141.37 42.3636 1140.47 42.6979 1139.46 42.8734C1136.62 43.4312 1132.61 43.0631 1130.71 42.0703C1130.32 41.895 1130.03 41.6618 1129.87 41.398C1129.72 41.1342 1129.7 40.8508 1129.82 40.5811L1130.06 40.0903C1132.52 40.6001 1135.14 40.8259 1137.76 40.754C1139.8 40.7081 1141.73 40.2246 1143.15 39.4043C1143.24 39.9118 1143.28 40.2353 1143.29 40.319V40.319ZM1143.06 38.8689C1139.63 41.4401 1131.8 40.0401 1130.23 39.7222C1130.69 38.7741 1131.09 37.8631 1131.44 36.9893C1133.2 37.5978 1135.28 37.868 1137.35 37.759C1139.22 37.648 1141.03 37.3112 1142.65 36.7718C1142.82 37.5861 1142.96 38.3 1143.06 38.8689ZM1142.56 36.3646C1136.56 38.3725 1132.44 36.9224 1131.56 36.5933C1131.9 35.7176 1132.18 34.881 1132.43 34.0835C1134.04 34.3738 1135.74 34.4856 1137.43 34.4125C1138.97 34.3442 1140.47 34.0871 1141.82 33.6596C1142.15 34.6245 1142.37 35.567 1142.56 36.3646ZM1132.56 33.7042C1132.81 32.8676 1133.01 32.0644 1133.16 31.3115C1134.48 31.5814 1135.89 31.6861 1137.3 31.6183C1138.61 31.5562 1139.88 31.3375 1141.03 30.9768C1141.3 31.7521 1141.53 32.5162 1141.74 33.258C1140.35 33.6837 1138.82 33.9432 1137.24 34.0201C1135.66 34.0969 1134.08 33.9893 1132.58 33.7042H1132.56ZM1133.23 30.9155C1133.36 30.2016 1133.46 29.5212 1133.52 28.8798C1134.65 29.089 1135.84 29.1687 1137.03 29.114C1138.12 29.0594 1139.19 28.8689 1140.14 28.5563C1140.41 29.22 1140.67 29.8948 1140.9 30.5585C1139.75 30.9321 1138.47 31.1584 1137.14 31.2211C1135.82 31.2839 1134.49 31.1814 1133.25 30.9211L1133.23 30.9155ZM1133.56 28.4837C1133.56 27.887 1133.62 27.3236 1133.61 26.8105C1134.35 26.8855 1135.1 26.9061 1135.85 26.8719C1137 26.8284 1138.11 26.6042 1139.05 26.2249C1139.38 26.8719 1139.69 27.5356 1139.97 28.2049C1139 28.508 1137.93 28.6904 1136.83 28.7395C1135.72 28.7887 1134.61 28.7033 1133.58 28.4893L1133.56 28.4837ZM1133.61 26.4034C1133.61 25.7397 1133.53 25.1317 1133.44 24.574C1133.97 24.6419 1134.53 24.6626 1135.08 24.6353C1136.07 24.5855 1137.02 24.3934 1137.84 24.0776C1138.19 24.6353 1138.53 25.1931 1138.84 25.801C1138.09 26.0998 1137.24 26.3082 1136.35 26.413C1135.45 26.5177 1134.52 26.5163 1133.63 26.409L1133.61 26.4034ZM1133.38 24.1724C1133.29 23.7039 1133.19 23.2745 1133.08 22.8841C1133.39 22.9013 1133.71 22.9013 1134.03 22.8841C1134.95 22.8481 1135.83 22.6532 1136.55 22.3263C1136.92 22.7669 1137.26 23.2354 1137.6 23.7207C1137.01 23.971 1136.32 24.1424 1135.59 24.2217C1134.86 24.3009 1134.11 24.286 1133.4 24.178L1133.38 24.1724ZM1132.97 22.4992C1132.82 22.053 1132.67 21.6682 1132.52 21.3391C1132.72 21.3503 1132.93 21.3503 1133.14 21.3391C1133.89 21.3103 1134.6 21.13 1135.14 20.8316C1135.55 21.1911 1135.93 21.5635 1136.28 21.947C1135.84 22.1706 1135.31 22.3367 1134.74 22.4332C1134.18 22.5296 1133.57 22.5541 1132.99 22.5048L1132.97 22.4992ZM1132.32 20.9375C1132.13 20.5694 1131.96 20.2961 1131.83 20.1065H1132.26C1132.79 20.0793 1133.3 19.9859 1133.76 19.8332C1134.11 20.0471 1134.45 20.2724 1134.76 20.5081C1134.46 20.6933 1134.08 20.8311 1133.65 20.9075C1133.23 20.9839 1132.77 20.9962 1132.34 20.9431L1132.32 20.9375ZM1133.63 19.4372C1133.3 19.5627 1132.93 19.6505 1132.54 19.6955C1132.15 19.7405 1131.75 19.7418 1131.36 19.6993C1130.74 19.6285 1130.18 19.4479 1129.76 19.1846C1129.34 18.9212 1129.08 18.5892 1129.03 18.2381C1128.99 18.0273 1129.03 17.8149 1129.15 17.6129C1129.26 17.411 1129.44 17.2235 1129.69 17.0613V17.0613C1129.93 16.8922 1130.23 16.7527 1130.58 16.651C1130.92 16.5494 1131.3 16.4878 1131.69 16.47H1132.12C1132.49 16.4805 1132.85 16.5316 1133.19 16.6206C1133.65 16.7427 1134.05 16.9305 1134.34 17.1654C1134.64 17.4003 1134.81 17.6741 1134.86 17.9592C1134.91 18.244 1134.82 18.5313 1134.61 18.7919C1134.4 19.0524 1134.06 19.277 1133.65 19.4428L1133.63 19.4372ZM1136.63 1.68437C1137.91 1.40715 1139.26 1.23253 1140.63 1.16567C1142.06 1.08265 1143.51 1.17594 1144.87 1.43896C1142.78 1.76245 1137.87 2.64369 1136.63 3.99342C1136.59 4.02183 1136.58 4.05468 1136.58 4.08822C1136.58 4.12176 1136.59 4.15463 1136.63 4.18305C1136.66 4.21111 1136.7 4.23377 1136.76 4.24854C1136.81 4.26331 1136.87 4.26961 1136.93 4.2667C1138.53 4.28804 1140.09 4.52739 1141.49 4.96388C1139.71 5.14793 1136.06 5.6499 1135 6.79885C1134.97 6.82683 1134.95 6.85855 1134.95 6.89086C1134.95 6.92317 1134.97 6.95491 1135 6.98289C1135.03 7.01155 1135.07 7.035 1135.12 7.05072C1135.18 7.06644 1135.24 7.07384 1135.3 7.07213C1136.84 7.07609 1138.32 7.39345 1139.47 7.96452C1137.95 8.03703 1134.52 8.31031 1133.64 9.24173C1133.6 9.27185 1133.59 9.30664 1133.59 9.34214C1133.59 9.37763 1133.6 9.41241 1133.64 9.44253C1133.67 9.47306 1133.72 9.49652 1133.79 9.50954C1133.85 9.52256 1133.91 9.52449 1133.98 9.51504C1134.6 9.44511 1135.25 9.45924 1135.86 9.55624C1136.47 9.65325 1137.03 9.83033 1137.5 10.0728C1136.53 10.0822 1135.59 10.2299 1134.76 10.5015C1133.93 10.7731 1133.24 11.1594 1132.76 11.6233C1132.72 11.6528 1132.71 11.6865 1132.71 11.7209C1132.71 11.7553 1132.72 11.789 1132.76 11.8185C1132.79 11.8475 1132.84 11.8706 1132.9 11.8853C1132.95 11.9001 1133.01 11.9059 1133.08 11.9022C1134.02 11.8658 1134.97 11.9697 1135.82 12.2033C1134.12 13.1195 1132.83 14.2445 1132.05 15.4884C1131.34 12.8113 1129.12 3.80378 1136.71 1.68995L1136.63 1.68437ZM1123.86 12.5603C1124.67 12.0249 1125.72 11.6252 1126.92 11.4058C1126.98 11.3962 1127.03 11.3776 1127.07 11.352C1127.12 11.3265 1127.14 11.2949 1127.16 11.2608C1127.17 11.2264 1127.16 11.1912 1127.14 11.1589C1127.11 11.1265 1127.08 11.0981 1127.03 11.0767C1126.04 10.6629 1124.87 10.3995 1123.64 10.3125C1122.42 10.2255 1121.17 10.3178 1120.03 10.5803C1120.84 9.18597 1123.69 8.9071 1123.82 8.87364C1123.88 8.86909 1123.94 8.85386 1123.99 8.82998C1124.04 8.8061 1124.07 8.77465 1124.09 8.73977C1124.1 8.70472 1124.1 8.66811 1124.08 8.63376C1124.06 8.59942 1124.02 8.56861 1123.98 8.54456C1122.12 7.67448 1117.69 8.34936 1115.98 8.65611C1116.81 7.62153 1118.33 6.80379 1120.21 6.36938C1120.26 6.35865 1120.31 6.33947 1120.35 6.31392C1120.39 6.28837 1120.42 6.25742 1120.43 6.22438C1120.44 6.19187 1120.43 6.15843 1120.41 6.12722C1120.39 6.09601 1120.36 6.06803 1120.32 6.04589C1118.04 4.9583 1113.08 5.42123 1110.98 5.68337C1112.27 4.74217 1113.97 3.99945 1115.92 3.5249C1115.97 3.51365 1116.02 3.49433 1116.06 3.46887C1116.1 3.44341 1116.13 3.41273 1116.14 3.3799C1116.15 3.34738 1116.15 3.31362 1116.13 3.2822C1116.11 3.25078 1116.07 3.22286 1116.03 3.20142C1113.32 1.92977 1106.53 2.26999 1104.03 2.44288C1107.81 0.401558 1114.03 0.412722 1114.09 0.412722C1125.01 0.881223 1130.18 12.4543 1131.36 15.5386C1129.34 14.2229 1126.78 13.2023 1123.9 12.5659L1123.86 12.5603ZM1123.71 17.7194C1123.44 17.1715 1123.44 16.5941 1123.71 16.0462C1123.73 16.013 1123.73 15.9777 1123.71 15.9441C1123.69 15.9106 1123.66 15.8802 1123.62 15.8565C1123.57 15.8321 1123.52 15.815 1123.46 15.8071C1123.4 15.7992 1123.34 15.8009 1123.28 15.8119C1122.31 16.0046 1121.44 16.333 1120.77 16.7657C1120.09 17.1984 1119.63 17.7208 1119.42 18.2827C1119.05 17.9577 1118.82 17.5875 1118.77 17.2038C1118.71 16.8201 1118.82 16.4344 1119.09 16.0796C1119.12 16.0506 1119.14 16.0167 1119.14 15.982C1119.14 15.9474 1119.12 15.9134 1119.09 15.8844C1119.04 15.8576 1118.99 15.8381 1118.93 15.8282C1118.86 15.8183 1118.8 15.8185 1118.74 15.8286C1116.8 16.1465 1115.6 18.1265 1115.17 18.9799C1114.3 18.189 1113.99 17.2464 1114.31 16.3362C1114.32 16.3041 1114.32 16.2709 1114.3 16.2396C1114.28 16.2083 1114.25 16.1801 1114.21 16.1577C1114.17 16.1332 1114.11 16.1159 1114.05 16.108C1113.99 16.1 1113.93 16.1018 1113.88 16.1131C1111.5 16.4979 1109.81 18.5671 1109.13 19.5543C1108.58 18.639 1108.44 17.6625 1108.72 16.7099C1108.73 16.6775 1108.73 16.6433 1108.72 16.6108C1108.7 16.5784 1108.67 16.549 1108.63 16.5258C1108.58 16.5024 1108.53 16.4859 1108.47 16.478C1108.41 16.4702 1108.35 16.4713 1108.3 16.4812C1105.49 16.9497 1102.83 19.6603 1101.82 20.7925C1101.09 18.3998 1103.91 16.0238 1103.93 16.0071C1105.63 14.7801 1108.36 14.2279 1111.48 14.0773C1118.53 13.7427 1127.48 15.4828 1130.79 16.18C1128.24 16.3705 1125.81 16.8983 1123.71 17.7194ZM1129.51 16.6876L1129.34 16.7768H1129.04L1129.51 16.6876ZM1125.88 18.9185C1125.84 18.7042 1125.89 18.4884 1126 18.2834C1126.12 18.0785 1126.31 17.8884 1126.56 17.7241C1126.81 17.5599 1127.11 17.4247 1127.45 17.3262C1127.8 17.2278 1128.17 17.1681 1128.56 17.1505H1128.86V17.1784C1128.86 17.2063 1128.81 17.2397 1128.78 17.2676C1128.71 17.3436 1128.65 17.4218 1128.6 17.5019L1128.54 17.619C1128.5 17.6976 1128.47 17.7778 1128.45 17.8588V17.9648C1128.43 18.0854 1128.43 18.2067 1128.45 18.3273C1128.46 18.4289 1128.49 18.5296 1128.54 18.6285C1128.54 18.662 1128.54 18.6954 1128.59 18.7289L1128.71 18.9185L1128.8 19.0245C1128.84 19.0802 1128.9 19.1342 1128.96 19.1862L1129.08 19.2922C1129.13 19.341 1129.2 19.3876 1129.27 19.4316L1129.42 19.5265C1129.49 19.5719 1129.57 19.6148 1129.65 19.6547L1129.82 19.7328C1129.9 19.7731 1129.99 19.8104 1130.09 19.8444L1130.26 19.9057C1130.4 19.9514 1130.55 19.9906 1130.71 20.0228V20.0228C1130.24 20.2418 1129.67 20.3744 1129.07 20.4021C1128.67 20.4227 1128.28 20.3992 1127.9 20.333C1127.53 20.2668 1127.18 20.1593 1126.88 20.0168C1126.58 19.8742 1126.34 19.6997 1126.16 19.5033C1125.99 19.307 1125.88 19.093 1125.86 18.8739L1125.88 18.9185ZM1155.03 43.6208C1155.28 43.9824 1155.38 44.3721 1155.32 44.7593C1155.26 45.1464 1155.04 45.5204 1154.68 45.8518C1153.37 47.1234 1149.41 48.7576 1138.01 49.3042C1124.01 49.9679 1120.18 48.0269 1119.13 46.8055C1118.77 46.425 1118.61 45.9989 1118.65 45.5714C1118.7 45.1439 1118.94 44.7304 1119.37 44.3738C1119.95 44.0011 1120.44 43.582 1120.81 43.13C1121.81 42.0145 1122.86 40.8656 1129.62 39.6887C1129.49 39.9732 1129.35 40.2465 1129.21 40.5477C1129.04 40.8831 1129.06 41.2381 1129.25 41.569C1129.44 41.9 1129.8 42.1925 1130.29 42.4105C1131.29 42.855 1132.43 43.1852 1133.66 43.3823C1134.89 43.5795 1136.18 43.6397 1137.45 43.5594C1138.22 43.5226 1138.99 43.4327 1139.73 43.2917C1140.86 43.0929 1141.87 42.7163 1142.62 42.2069C1143.38 41.6975 1143.86 41.0769 1144.01 40.4194V40.3803C1144.01 40.2632 1143.92 39.6832 1143.76 38.7852C1146.19 39.0056 1148.5 39.5583 1150.46 40.394C1152.42 41.2298 1153.98 42.3229 1155.01 43.5762L1155.03 43.6208ZM1138.17 17.8532C1138.2 18.0671 1138.16 18.2825 1138.04 18.4871C1137.92 18.6918 1137.74 18.8816 1137.49 19.0458C1137.24 19.21 1136.94 19.3453 1136.6 19.444C1136.25 19.5428 1135.88 19.603 1135.5 19.6213C1135.16 19.6394 1134.82 19.6243 1134.5 19.5766C1134.56 19.5488 1134.6 19.5153 1134.66 19.4818L1134.74 19.4316C1134.83 19.3703 1134.92 19.3034 1135 19.2364C1135.07 19.1751 1135.13 19.1082 1135.19 19.0468L1135.25 18.9743C1135.25 18.9241 1135.32 18.8739 1135.35 18.8181C1135.38 18.7624 1135.35 18.7624 1135.4 18.7345C1135.43 18.6833 1135.45 18.6311 1135.47 18.5783V18.4946V18.3273C1135.47 18.3013 1135.47 18.2752 1135.47 18.2492C1135.48 18.1657 1135.48 18.0818 1135.47 17.9982C1135.47 17.9146 1135.47 17.8365 1135.4 17.7528C1135.33 17.6692 1135.4 17.7027 1135.4 17.6748C1135.4 17.6469 1135.35 17.5688 1135.32 17.5186L1135.26 17.4294C1135.22 17.3819 1135.19 17.3353 1135.15 17.2899C1135.12 17.2609 1135.1 17.2329 1135.07 17.2063C1135.07 17.1616 1134.98 17.117 1134.93 17.0724L1134.84 16.9999C1134.78 16.9478 1134.7 16.8993 1134.63 16.8549L1134.57 16.8103C1134.47 16.7535 1134.37 16.6996 1134.27 16.6485L1134.15 16.5983L1133.98 16.5202C1134.27 16.4475 1134.59 16.4023 1134.92 16.3864C1135.68 16.3391 1136.45 16.4618 1137.05 16.728C1137.66 16.9942 1138.05 17.3824 1138.15 17.8086L1138.17 17.8532ZM1156.71 11.1604C1156.65 11.1634 1156.59 11.1747 1156.54 11.1932C1156.49 11.2118 1156.45 11.2369 1156.43 11.2663C1156.4 11.2953 1156.38 11.328 1156.38 11.3612C1156.38 11.3943 1156.4 11.427 1156.43 11.456C1157.43 12.386 1158 13.4401 1158.09 14.5235C1156.72 13.6869 1153.46 11.9022 1150.72 12.036C1150.66 12.0383 1150.6 12.0494 1150.56 12.0681C1150.51 12.0868 1150.47 12.1123 1150.45 12.142C1150.42 12.171 1150.4 12.2036 1150.4 12.2368C1150.4 12.27 1150.42 12.3026 1150.45 12.3316C1151.43 13.2131 1151.78 14.2672 1151.45 15.2876C1150.45 14.5291 1147.73 12.7276 1145.5 12.8392C1145.43 12.8408 1145.37 12.8534 1145.32 12.8753C1145.27 12.8972 1145.23 12.9274 1145.21 12.9619C1145.18 12.995 1145.18 13.0316 1145.19 13.0666C1145.21 13.1016 1145.24 13.1332 1145.29 13.1571C1145.83 13.4664 1146.23 13.8456 1146.44 14.2611C1146.66 14.6766 1146.69 15.1154 1146.53 15.5386C1145.91 15.0096 1145.05 14.5781 1144.05 14.2852C1143.04 13.9923 1141.92 13.8478 1140.79 13.8654C1140.72 13.8676 1140.66 13.8791 1140.61 13.8987C1140.56 13.9183 1140.51 13.9453 1140.49 13.977C1140.46 14.0089 1140.45 14.044 1140.46 14.0785C1140.47 14.1129 1140.5 14.1453 1140.54 14.1722C1141.22 14.6863 1141.64 15.2965 1141.74 15.9346C1139.87 15.6757 1137.95 15.5928 1136.04 15.6892C1135.11 15.7369 1134.19 15.8207 1133.29 15.9402C1137.29 13.9044 1152.14 6.77652 1160.78 9.66004C1160.83 9.66004 1165.52 11.5062 1166.45 14.161C1164.71 13.2128 1159.94 10.9763 1156.71 11.1325V11.1604Z" fill="#E5E5E5"/>
<path d="M1115.18 22.6888C1105.92 19.6045 1090.65 27.0336 1086.77 29.0582C1087.55 27.7743 1088.91 26.6226 1090.71 25.7118C1090.75 25.6933 1090.78 25.6695 1090.81 25.6424C1090.83 25.6153 1090.84 25.5855 1090.84 25.5556C1090.84 25.5268 1090.82 25.4985 1090.8 25.4732C1090.78 25.4479 1090.74 25.4264 1090.7 25.4106C1089.84 25.0872 1088.83 24.909 1087.8 24.8975C1088.33 24.5314 1089.01 24.2432 1089.79 24.0576C1090.57 23.872 1091.41 23.7947 1092.26 23.8322C1092.32 23.8373 1092.38 23.8321 1092.44 23.8172C1092.5 23.8024 1092.54 23.7785 1092.58 23.7485C1092.61 23.718 1092.62 23.6834 1092.62 23.6481C1092.62 23.6129 1092.61 23.5783 1092.58 23.5478C1092.17 23.2028 1091.6 22.9242 1090.94 22.7401C1090.28 22.556 1089.54 22.4729 1088.8 22.4992C1090.11 21.9415 1093.08 21.7407 1094.28 21.7184C1094.34 21.718 1094.4 21.7073 1094.46 21.6875C1094.51 21.6677 1094.55 21.6396 1094.58 21.6068C1094.6 21.5749 1094.61 21.5397 1094.6 21.5053C1094.59 21.4709 1094.57 21.4385 1094.53 21.4116C1093.37 20.6604 1091.73 20.1936 1089.96 20.1121C1091.62 18.9966 1096.54 18.6619 1096.59 18.6564C1096.66 18.6534 1096.72 18.6375 1096.78 18.6113C1096.83 18.5851 1096.86 18.55 1096.88 18.5114C1096.89 18.4898 1096.9 18.4666 1096.9 18.4431C1096.9 18.4196 1096.89 18.3963 1096.88 18.3746C1096.86 18.3528 1096.84 18.333 1096.81 18.3163C1096.78 18.2996 1096.75 18.2862 1096.71 18.2771C1095.15 17.7228 1093.38 17.3773 1091.54 17.2676C1093.54 15.8844 1099.9 15.0366 1099.97 15.0366C1100.03 15.0278 1100.1 15.0075 1100.14 14.9786C1100.19 14.9497 1100.22 14.9135 1100.23 14.8749C1100.23 14.8368 1100.22 14.7984 1100.19 14.7645C1100.16 14.7307 1100.11 14.703 1100.05 14.6853C1095.79 13.4471 1090.59 14.6518 1090.35 14.6853C1084.35 16.3585 1084.08 21.908 1084.71 25.7508C1082.35 21.0825 1077.22 13.7706 1068.15 13.3857C1067.85 13.3857 1060.78 13.3857 1056.9 15.9346C1056.86 15.9656 1056.84 16.0026 1056.84 16.0406C1056.84 16.0785 1056.86 16.1155 1056.9 16.1465C1056.93 16.1799 1056.98 16.2067 1057.05 16.2236C1057.11 16.2405 1057.18 16.2467 1057.25 16.2414C1057.34 16.2414 1065.79 15.4773 1069.25 16.6485C1067.14 17.2589 1065.32 18.1449 1063.96 19.2308C1063.92 19.2636 1063.89 19.3025 1063.89 19.3424C1063.89 19.3823 1063.92 19.4212 1063.96 19.4539C1064 19.4859 1064.05 19.51 1064.12 19.523C1064.19 19.5359 1064.26 19.5371 1064.33 19.5264C1064.4 19.5264 1070.67 18.5504 1073.55 19.4986C1072.53 19.7727 1071.63 20.1572 1070.88 20.6294C1070.14 21.1016 1069.57 21.652 1069.22 22.2482C1069.2 22.2821 1069.19 22.3186 1069.21 22.3533C1069.23 22.388 1069.26 22.4193 1069.31 22.4434C1069.35 22.4686 1069.41 22.4857 1069.47 22.4927C1069.53 22.4996 1069.6 22.4961 1069.66 22.4825C1071.15 22.1757 1075.03 21.5678 1077.03 21.9805C1076.11 22.1299 1075.28 22.4166 1074.63 22.8098C1073.98 23.2029 1073.53 23.6875 1073.34 24.2115C1073.33 24.2464 1073.33 24.2821 1073.36 24.3146C1073.38 24.3471 1073.42 24.3752 1073.48 24.3955C1073.53 24.4131 1073.59 24.4224 1073.66 24.4224C1073.72 24.4224 1073.78 24.4131 1073.84 24.3955C1074.83 24.1115 1075.93 23.9717 1077.04 23.9893C1078.15 24.0068 1079.24 24.1811 1080.2 24.4959C1078.95 24.7779 1077.88 25.2615 1077.13 25.8847C1077.1 25.9105 1077.09 25.9392 1077.09 25.9683C1077.09 25.9975 1077.1 26.0262 1077.13 26.052C1077.15 26.0795 1077.17 26.1043 1077.21 26.1246C1077.25 26.1449 1077.3 26.1601 1077.35 26.1691C1080.29 26.7581 1082.91 27.7632 1084.95 29.0861C1080.01 28.0208 1063.25 24.8138 1057.37 29.0861C1057.23 29.2032 1053.92 31.9864 1055.37 34.7137C1055.39 34.7503 1055.43 34.7826 1055.48 34.8065C1055.53 34.8304 1055.6 34.8447 1055.67 34.8475H1055.72C1055.78 34.844 1055.83 34.8318 1055.88 34.8123C1055.93 34.7928 1055.97 34.7665 1056 34.736C1056 34.697 1058.92 31.1051 1061.94 30.2741C1061.76 31.3742 1062.04 32.4825 1062.78 33.509C1062.8 33.5457 1062.84 33.5773 1062.9 33.5994C1062.96 33.6214 1063.03 33.6327 1063.1 33.6317C1063.17 33.6311 1063.24 33.6178 1063.3 33.5938C1063.35 33.5697 1063.4 33.5361 1063.42 33.4978C1063.42 33.4699 1065.07 30.6366 1067.53 29.906C1067.42 30.4277 1067.49 30.9564 1067.75 31.4618C1068.01 31.9671 1068.44 32.4391 1069.03 32.8508C1069.07 32.8782 1069.12 32.8985 1069.18 32.9094C1069.24 32.9203 1069.31 32.9213 1069.37 32.9122C1069.43 32.9052 1069.48 32.8883 1069.53 32.8635C1069.57 32.8387 1069.6 32.8071 1069.62 32.7728C1069.91 32.07 1070.88 30.341 1072.25 29.7052C1072.04 30.1333 1072.04 30.5847 1072.24 31.0131C1072.45 31.4414 1072.86 31.8313 1073.43 32.1425C1073.47 32.1659 1073.53 32.1819 1073.59 32.1888C1073.65 32.1957 1073.72 32.1932 1073.78 32.1816C1073.84 32.1684 1073.89 32.1464 1073.93 32.1179C1073.97 32.0894 1073.99 32.0554 1074 32.0198C1074.1 31.5157 1074.43 31.0335 1074.94 30.6147C1075.45 30.1959 1076.14 29.8532 1076.95 29.6159C1076.75 30.225 1076.87 30.8532 1077.31 31.423C1077.33 31.4498 1077.36 31.4734 1077.4 31.4919C1077.44 31.5104 1077.49 31.5231 1077.54 31.529C1077.59 31.5352 1077.64 31.5349 1077.69 31.5282C1077.74 31.5214 1077.79 31.5083 1077.83 31.49C1078.62 31.1443 1079.48 30.854 1080.4 30.6255C1080 30.8315 1079.69 31.0858 1079.49 31.369C1079.29 31.6522 1079.21 31.9568 1079.26 32.2596C1079.34 32.7913 1079.79 33.2832 1080.53 33.6273C1081.26 33.9713 1082.2 34.1394 1083.16 34.0946C1083.94 34.0563 1084.68 33.8738 1085.26 33.5759C1086.11 34.8141 1089.36 40.7484 1083.86 52.539C1076.44 53.7828 1075.26 55.0879 1074.23 56.2424C1073.89 56.6619 1073.45 57.0511 1072.91 57.397C1072.38 57.8092 1072.07 58.2937 1072.01 58.7974C1071.95 59.3011 1072.14 59.8046 1072.56 60.2526C1073.93 61.8477 1078.44 63.599 1092.1 62.9576C1101.5 62.5114 1107.29 61.2844 1109.31 59.31C1109.72 58.9318 1109.96 58.5055 1110.03 58.0649C1110.09 57.6244 1109.96 57.1817 1109.67 56.7723C1107.67 54.1063 1102.55 51.9478 1097.67 51.6857C1096.89 47.3855 1094.5 37.3072 1088.84 33.2803C1089.08 33.2942 1089.32 33.2942 1089.56 33.2803C1090.51 33.2335 1091.39 32.9777 1092.01 32.569C1092.63 32.1602 1092.93 31.6318 1092.85 31.0995C1092.78 30.6995 1092.51 30.3191 1092.05 30.0078C1091.6 29.6965 1090.99 29.4686 1090.3 29.3538C1092.22 29.2605 1094.16 29.3606 1096.03 29.6494C1096.07 29.6617 1096.12 29.6681 1096.17 29.6681C1096.22 29.6681 1096.27 29.6617 1096.32 29.6494C1096.36 29.6339 1096.4 29.6126 1096.42 29.5873C1096.45 29.5621 1096.46 29.5336 1096.47 29.5044C1096.49 28.8108 1096.14 28.1288 1095.47 27.5467C1096.48 27.6002 1097.46 27.7939 1098.31 28.1104C1099.16 28.4268 1099.85 28.8561 1100.33 29.3594C1100.35 29.3908 1100.4 29.4173 1100.45 29.436C1100.5 29.4547 1100.56 29.4648 1100.63 29.4654C1100.69 29.4648 1100.75 29.4547 1100.8 29.436C1100.86 29.4173 1100.9 29.3908 1100.93 29.3594C1101.29 28.9079 1101.43 28.4099 1101.32 27.9187C1101.21 27.4274 1100.87 26.9615 1100.33 26.5707C1102.21 26.8775 1104.53 28.467 1105.33 29.1363C1105.36 29.164 1105.41 29.1862 1105.46 29.2009C1105.52 29.2155 1105.58 29.2221 1105.64 29.22V29.22C1105.7 29.2147 1105.76 29.1992 1105.81 29.1755C1105.86 29.1517 1105.89 29.1206 1105.91 29.0861C1106.2 28.533 1106.3 27.9527 1106.19 27.3784C1106.09 26.8042 1105.78 26.2473 1105.29 25.7397C1108.36 25.907 1112.14 28.4782 1112.18 28.5284C1112.22 28.5588 1112.28 28.5809 1112.35 28.5919C1112.42 28.6028 1112.49 28.6021 1112.56 28.5897C1112.63 28.5773 1112.68 28.5524 1112.72 28.519C1112.76 28.4856 1112.78 28.4457 1112.78 28.4057C1112.79 27.1827 1112.27 25.9763 1111.28 24.8863C1114.99 25.0425 1120.62 28.1101 1120.68 28.1435C1120.73 28.1706 1120.79 28.1883 1120.86 28.1943C1120.93 28.2003 1120.99 28.1943 1121.06 28.177C1121.12 28.161 1121.17 28.1347 1121.2 28.1018C1121.24 28.0688 1121.25 28.0308 1121.25 27.9929C1120.82 24.8863 1115.43 22.7836 1115.18 22.6888ZM1097.29 53.7047C1097.16 54.2907 1096.72 54.8433 1096.05 55.2963C1095.37 55.7494 1094.47 56.0836 1093.46 56.2592C1090.62 56.8169 1086.61 56.4488 1084.71 55.456C1084.32 55.2808 1084.03 55.0475 1083.87 54.7838C1083.72 54.52 1083.7 54.2366 1083.82 53.9669L1084.06 53.476C1086.52 53.9859 1089.14 54.2117 1091.76 54.1398C1093.8 54.0939 1095.73 53.6104 1097.15 52.79C1097.24 53.2976 1097.28 53.6211 1097.29 53.7047V53.7047ZM1097.06 52.2546C1093.63 54.8258 1085.8 53.4259 1084.23 53.108C1084.69 52.1598 1085.09 51.2488 1085.44 50.375C1087.2 50.9835 1089.28 51.2538 1091.35 51.1447C1093.22 51.0338 1095.03 50.6969 1096.65 50.1575C1096.82 50.9718 1096.96 51.6857 1097.06 52.2546ZM1096.56 49.7504C1090.56 51.7582 1086.44 50.3081 1085.56 49.979C1085.9 49.1034 1086.18 48.2668 1086.43 47.4692C1088.04 47.7596 1089.74 47.8713 1091.43 47.7983C1092.97 47.73 1094.47 47.4729 1095.82 47.0453C1096.15 48.0102 1096.37 48.9528 1096.56 49.7504ZM1086.56 47.0899C1086.81 46.2533 1087.01 45.4502 1087.16 44.6972C1088.48 44.9672 1089.89 45.0719 1091.3 45.004C1092.61 44.942 1093.88 44.7232 1095.03 44.3626C1095.3 45.1378 1095.53 45.9019 1095.74 46.6437C1094.35 47.0694 1092.82 47.329 1091.24 47.4058C1089.66 47.4826 1088.08 47.3751 1086.58 47.0899H1086.56ZM1087.23 44.3012C1087.36 43.5873 1087.46 42.9069 1087.52 42.2655C1088.65 42.4747 1089.84 42.5544 1091.03 42.4997C1092.12 42.4452 1093.19 42.2546 1094.14 41.942C1094.41 42.6057 1094.67 43.2806 1094.9 43.9443C1093.75 44.3178 1092.47 44.5442 1091.14 44.6069C1089.82 44.6696 1088.49 44.5671 1087.25 44.3068L1087.23 44.3012ZM1087.56 41.8695C1087.56 41.2727 1087.62 40.7094 1087.61 40.1963C1088.35 40.2712 1089.1 40.2919 1089.85 40.2576C1091 40.2142 1092.11 39.9899 1093.05 39.6106C1093.38 40.2576 1093.69 40.9213 1093.97 41.5906C1093 41.8937 1091.93 42.0762 1090.83 42.1253C1089.72 42.1744 1088.61 42.089 1087.58 41.8751L1087.56 41.8695ZM1087.61 39.7891C1087.61 39.1254 1087.53 38.5175 1087.44 37.9597C1087.97 38.0276 1088.53 38.0483 1089.08 38.0211C1090.07 37.9712 1091.02 37.7791 1091.84 37.4633C1092.19 38.0211 1092.53 38.5788 1092.84 39.1868C1092.09 39.4855 1091.24 39.694 1090.35 39.7987C1089.45 39.9034 1088.52 39.902 1087.63 39.7947L1087.61 39.7891ZM1087.38 37.5582C1087.29 37.0897 1087.19 36.6602 1087.08 36.2698C1087.39 36.287 1087.71 36.287 1088.03 36.2698C1088.95 36.2339 1089.83 36.039 1090.55 35.7121C1090.92 36.1527 1091.26 36.6212 1091.6 37.1064C1091.01 37.3567 1090.32 37.5281 1089.59 37.6074C1088.86 37.6867 1088.11 37.6717 1087.4 37.5637L1087.38 37.5582ZM1086.97 35.885C1086.82 35.4388 1086.67 35.0539 1086.52 34.7248C1086.72 34.736 1086.93 34.736 1087.14 34.7248C1087.89 34.696 1088.6 34.5157 1089.14 34.2173C1089.55 34.5768 1089.93 34.9493 1090.28 35.3328C1089.84 35.5563 1089.31 35.7224 1088.74 35.8189C1088.18 35.9154 1087.57 35.9398 1086.99 35.8905L1086.97 35.885ZM1086.32 34.3233C1086.13 33.9552 1085.96 33.6819 1085.83 33.4922H1086.26C1086.79 33.4651 1087.3 33.3717 1087.76 33.219C1088.11 33.4329 1088.45 33.6582 1088.76 33.8938C1088.46 34.079 1088.08 34.2168 1087.65 34.2932C1087.23 34.3696 1086.77 34.3819 1086.34 34.3289L1086.32 34.3233ZM1087.63 32.823C1087.3 32.9484 1086.93 33.0363 1086.54 33.0813C1086.15 33.1263 1085.75 33.1276 1085.36 33.0851C1084.74 33.0142 1084.18 32.8336 1083.76 32.5703C1083.34 32.307 1083.08 31.9749 1083.03 31.6238C1082.99 31.4131 1083.03 31.2006 1083.15 30.9987C1083.26 30.7967 1083.44 30.6092 1083.69 30.447V30.447C1083.93 30.278 1084.23 30.1384 1084.58 30.0368C1084.92 29.9351 1085.3 29.8736 1085.69 29.8558H1086.12C1086.49 29.8662 1086.85 29.9174 1087.19 30.0064C1087.65 30.1284 1088.05 30.3163 1088.34 30.5512C1088.64 30.7861 1088.81 31.0598 1088.86 31.3449C1088.91 31.6298 1088.82 31.9171 1088.61 32.1776C1088.4 32.4382 1088.06 32.6627 1087.65 32.8285L1087.63 32.823ZM1090.63 15.0701C1091.91 14.7929 1093.26 14.6183 1094.63 14.5514C1096.06 14.4684 1097.51 14.5617 1098.87 14.8247C1096.78 15.1482 1091.87 16.0294 1090.63 17.3792C1090.59 17.4076 1090.58 17.4404 1090.58 17.474C1090.58 17.5075 1090.59 17.5404 1090.63 17.5688C1090.66 17.5968 1090.7 17.6195 1090.76 17.6343C1090.81 17.6491 1090.87 17.6553 1090.93 17.6524C1092.53 17.6738 1094.09 17.9131 1095.49 18.3496C1093.71 18.5337 1090.06 19.0356 1089 20.1846C1088.97 20.2126 1088.95 20.2443 1088.95 20.2766C1088.95 20.3089 1088.97 20.3407 1089 20.3686C1089.03 20.3973 1089.07 20.4207 1089.12 20.4365C1089.18 20.4522 1089.24 20.4596 1089.3 20.4579C1090.84 20.4618 1092.32 20.7792 1093.47 21.3503C1091.95 21.4228 1088.52 21.696 1087.64 22.6275C1087.6 22.6576 1087.59 22.6924 1087.59 22.7279C1087.59 22.7634 1087.6 22.7982 1087.64 22.8283C1087.67 22.8588 1087.72 22.8823 1087.79 22.8953C1087.85 22.9083 1087.91 22.9102 1087.98 22.9008C1088.6 22.8309 1089.25 22.845 1089.86 22.942C1090.47 23.039 1091.03 23.2161 1091.5 23.4585C1090.53 23.468 1089.59 23.6156 1088.76 23.8872C1087.93 24.1588 1087.24 24.5452 1086.76 25.009C1086.72 25.0385 1086.71 25.0722 1086.71 25.1066C1086.71 25.141 1086.72 25.1748 1086.76 25.2042C1086.79 25.2332 1086.84 25.2563 1086.9 25.2711C1086.95 25.2858 1087.01 25.2917 1087.08 25.2879C1088.02 25.2515 1088.97 25.3554 1089.82 25.5891C1088.12 26.5053 1086.83 27.6302 1086.05 28.8742C1085.34 26.197 1083.12 17.1895 1090.71 15.0757L1090.63 15.0701ZM1077.86 25.946C1078.67 25.4106 1079.72 25.0109 1080.92 24.7915C1080.98 24.7819 1081.03 24.7634 1081.07 24.7378C1081.12 24.7122 1081.14 24.6806 1081.16 24.6465C1081.17 24.6121 1081.16 24.577 1081.14 24.5446C1081.11 24.5122 1081.08 24.4839 1081.03 24.4624C1080.04 24.0486 1078.87 23.7853 1077.64 23.6982C1076.42 23.6112 1075.17 23.7035 1074.03 23.9661C1074.84 22.5717 1077.69 22.2928 1077.82 22.2594C1077.88 22.2548 1077.94 22.2396 1077.99 22.2157C1078.04 22.1918 1078.07 22.1604 1078.09 22.1255C1078.1 22.0905 1078.1 22.0538 1078.08 22.0195C1078.06 21.9852 1078.02 21.9543 1077.98 21.9303C1076.12 21.0602 1071.69 21.7351 1069.98 22.0419C1070.81 21.0073 1072.33 20.1895 1074.21 19.7551C1074.26 19.7444 1074.31 19.7252 1074.35 19.6997C1074.39 19.6741 1074.42 19.6432 1074.43 19.6101C1074.44 19.5776 1074.43 19.5442 1074.41 19.513C1074.39 19.4818 1074.36 19.4538 1074.32 19.4316C1072.04 18.344 1067.08 18.807 1064.98 19.0691C1066.27 18.1279 1067.97 17.3852 1069.92 16.9106C1069.97 16.8994 1070.02 16.8801 1070.06 16.8546C1070.1 16.8292 1070.13 16.7985 1070.14 16.7656C1070.15 16.7331 1070.15 16.6994 1070.13 16.6679C1070.11 16.6365 1070.07 16.6086 1070.03 16.5872C1067.32 15.3155 1060.53 15.6557 1058.03 15.8286C1061.81 13.7873 1068.03 13.7985 1068.09 13.7985C1079.01 14.267 1084.18 25.8401 1085.36 28.9244C1083.34 27.6087 1080.78 26.588 1077.9 25.9516L1077.86 25.946ZM1077.71 31.1051C1077.44 30.5572 1077.44 29.9798 1077.71 29.4319C1077.73 29.3988 1077.73 29.3634 1077.71 29.3298C1077.69 29.2963 1077.66 29.2659 1077.62 29.2423C1077.57 29.2178 1077.52 29.2007 1077.46 29.1928C1077.4 29.1849 1077.34 29.1866 1077.28 29.1976C1076.31 29.3903 1075.44 29.7188 1074.77 30.1515C1074.09 30.5842 1073.63 31.1066 1073.42 31.6684C1073.05 31.3435 1072.82 30.9733 1072.77 30.5896C1072.71 30.2059 1072.82 29.8201 1073.09 29.4654C1073.12 29.4363 1073.14 29.4024 1073.14 29.3678C1073.14 29.3331 1073.12 29.2992 1073.09 29.2702C1073.04 29.2433 1072.99 29.2238 1072.93 29.214C1072.86 29.2041 1072.8 29.2042 1072.74 29.2144C1070.8 29.5323 1069.6 31.5123 1069.17 32.3656C1068.3 31.5747 1067.99 30.6321 1068.31 29.7219C1068.32 29.6899 1068.32 29.6566 1068.3 29.6253C1068.28 29.5941 1068.25 29.5659 1068.21 29.5435C1068.17 29.5189 1068.11 29.5016 1068.05 29.4937C1067.99 29.4858 1067.93 29.4876 1067.88 29.4988C1065.5 29.8837 1063.81 31.9529 1063.13 32.9401C1062.58 32.0247 1062.44 31.0482 1062.72 30.0956C1062.73 30.0633 1062.73 30.029 1062.72 29.9966C1062.7 29.9641 1062.67 29.9347 1062.63 29.9116C1062.58 29.8881 1062.53 29.8716 1062.47 29.8638C1062.41 29.8559 1062.35 29.857 1062.3 29.8669C1059.49 30.3354 1056.83 33.0461 1055.82 34.1783C1055.09 31.7856 1057.91 29.4096 1057.93 29.3929C1059.63 28.1658 1062.36 27.6137 1065.48 27.4631C1072.53 27.1284 1081.48 28.8686 1084.79 29.5658C1082.24 29.7562 1079.81 30.2841 1077.71 31.1051ZM1083.51 30.0733L1083.34 30.1625H1083.04L1083.51 30.0733ZM1079.88 32.3043C1079.84 32.0899 1079.89 31.8741 1080 31.6692C1080.12 31.4642 1080.31 31.2741 1080.56 31.1099C1080.81 30.9456 1081.11 30.8104 1081.45 30.712C1081.8 30.6135 1082.17 30.5538 1082.56 30.5362H1082.86V30.5641C1082.86 30.592 1082.81 30.6255 1082.78 30.6534C1082.71 30.7293 1082.65 30.8076 1082.6 30.8876L1082.54 31.0047C1082.5 31.0833 1082.47 31.1635 1082.45 31.2446V31.3505C1082.43 31.4711 1082.43 31.5925 1082.45 31.7131C1082.46 31.8146 1082.49 31.9154 1082.54 32.0142C1082.54 32.0477 1082.54 32.0812 1082.59 32.1146L1082.71 32.3043L1082.8 32.4102C1082.84 32.4659 1082.9 32.5199 1082.96 32.572L1083.08 32.678C1083.13 32.7267 1083.2 32.7733 1083.27 32.8174L1083.42 32.9122C1083.49 32.9577 1083.57 33.0005 1083.65 33.0405L1083.82 33.1186C1083.9 33.1588 1083.99 33.1961 1084.09 33.2301L1084.26 33.2915C1084.4 33.3372 1084.55 33.3763 1084.71 33.4086V33.4086C1084.24 33.6275 1083.67 33.7602 1083.07 33.7878C1082.67 33.8085 1082.28 33.785 1081.9 33.7188C1081.53 33.6526 1081.18 33.545 1080.88 33.4025C1080.58 33.26 1080.34 33.0854 1080.16 32.8891C1079.99 32.6928 1079.88 32.4787 1079.86 32.2596L1079.88 32.3043ZM1109.03 57.0065C1109.28 57.3681 1109.38 57.7579 1109.32 58.145C1109.26 58.5321 1109.04 58.9061 1108.68 59.2375C1107.37 60.5092 1103.41 62.1433 1092.01 62.6899C1078.01 63.3536 1074.18 61.4127 1073.13 60.1912C1072.77 59.8107 1072.61 59.3847 1072.65 58.9572C1072.7 58.5296 1072.94 58.1162 1073.37 57.7595C1073.95 57.3869 1074.44 56.9677 1074.81 56.5157C1075.81 55.4003 1076.86 54.2513 1083.62 53.0745C1083.49 53.3589 1083.35 53.6322 1083.21 53.9334C1083.04 54.2688 1083.06 54.6238 1083.25 54.9548C1083.44 55.2857 1083.8 55.5782 1084.29 55.7962C1085.29 56.2407 1086.43 56.5709 1087.66 56.7681C1088.89 56.9652 1090.18 57.0254 1091.45 56.9452C1092.22 56.9083 1092.99 56.8184 1093.73 56.6775C1094.86 56.4787 1095.87 56.102 1096.62 55.5926C1097.38 55.0832 1097.86 54.4627 1098.01 53.8051V53.7661C1098.01 53.649 1097.92 53.0689 1097.76 52.1709C1100.19 52.3914 1102.5 52.944 1104.46 53.7798C1106.42 54.6155 1107.98 55.7086 1109.01 56.9619L1109.03 57.0065ZM1092.17 31.239C1092.2 31.4529 1092.16 31.6683 1092.04 31.8729C1091.92 32.0775 1091.74 32.2673 1091.49 32.4315C1091.24 32.5957 1090.94 32.731 1090.6 32.8298C1090.25 32.9285 1089.88 32.9888 1089.5 33.007C1089.16 33.0251 1088.82 33.01 1088.5 32.9624C1088.56 32.9345 1088.6 32.901 1088.66 32.8676L1088.74 32.8174C1088.83 32.756 1088.92 32.6891 1089 32.6222C1089.07 32.5608 1089.13 32.4939 1089.19 32.4325L1089.25 32.36C1089.25 32.3098 1089.32 32.2596 1089.35 32.2039C1089.38 32.1481 1089.35 32.1481 1089.4 32.1202C1089.43 32.069 1089.45 32.0169 1089.47 31.964V31.8804V31.7131C1089.47 31.6871 1089.47 31.6609 1089.47 31.635C1089.48 31.5514 1089.48 31.4676 1089.47 31.384C1089.47 31.3003 1089.47 31.2222 1089.4 31.1386C1089.33 31.0549 1089.4 31.0884 1089.4 31.0605C1089.4 31.0326 1089.35 30.9545 1089.32 30.9043L1089.26 30.8151C1089.22 30.7676 1089.19 30.7211 1089.15 30.6757C1089.12 30.6467 1089.1 30.6187 1089.07 30.592C1089.07 30.5474 1088.98 30.5028 1088.93 30.4581L1088.84 30.3856C1088.78 30.3336 1088.7 30.285 1088.63 30.2406L1088.57 30.196C1088.47 30.1393 1088.37 30.0853 1088.27 30.0343L1088.15 29.9841L1087.98 29.906C1088.27 29.8332 1088.59 29.788 1088.92 29.7721C1089.68 29.7248 1090.45 29.8476 1091.05 30.1137C1091.66 30.3799 1092.05 30.7681 1092.15 31.1944L1092.17 31.239ZM1110.71 24.5461C1110.65 24.5491 1110.59 24.5604 1110.54 24.579C1110.49 24.5975 1110.45 24.6226 1110.43 24.6521C1110.4 24.6811 1110.38 24.7137 1110.38 24.7469C1110.38 24.7801 1110.4 24.8127 1110.43 24.8417C1111.43 25.7718 1112 26.8258 1112.09 27.9093C1110.72 27.0727 1107.46 25.2879 1104.72 25.4218C1104.66 25.4241 1104.6 25.4352 1104.56 25.4538C1104.51 25.4725 1104.47 25.498 1104.45 25.5277C1104.42 25.5567 1104.4 25.5894 1104.4 25.6225C1104.4 25.6557 1104.42 25.6884 1104.45 25.7174C1105.43 26.5989 1105.78 27.653 1105.45 28.6734C1104.45 27.9149 1101.73 26.1134 1099.5 26.2249C1099.43 26.2265 1099.37 26.2391 1099.32 26.261C1099.27 26.2829 1099.23 26.3131 1099.21 26.3476C1099.18 26.3807 1099.18 26.4173 1099.19 26.4523C1099.21 26.4873 1099.24 26.5189 1099.29 26.5428C1099.83 26.8521 1100.23 27.2314 1100.44 27.6468C1100.66 28.0623 1100.69 28.5011 1100.53 28.9244C1099.91 28.3953 1099.05 27.9638 1098.05 27.6709C1097.04 27.378 1095.92 27.2335 1094.79 27.2511C1094.72 27.2534 1094.66 27.2649 1094.61 27.2845C1094.56 27.3041 1094.51 27.331 1094.49 27.3627C1094.46 27.3947 1094.45 27.4298 1094.46 27.4642C1094.47 27.4986 1094.5 27.5311 1094.54 27.5579C1095.22 28.0721 1095.64 28.6822 1095.74 29.3203C1093.87 29.0615 1091.95 28.9785 1090.04 29.0749C1089.11 29.1226 1088.19 29.2065 1087.29 29.3259C1091.29 27.2902 1106.14 20.1623 1114.78 23.0458C1114.83 23.0458 1119.52 24.8919 1120.45 27.5467C1118.71 26.5986 1113.94 24.3621 1110.71 24.5182V24.5461Z" fill="#E5E5E5"/>
<defs>
<linearGradient id="paint0_linear_1_401" x1="622.801" y1="39.1229" x2="322.441" y2="356.586" gradientUnits="userSpaceOnUse">
<stop stop-color="#747DEF"/>
<stop offset="1" stop-color="#5E3BE1"/>
</linearGradient>
</defs>
</svg>
