<svg width="52" height="48" viewBox="0 0 52 48" fill="none" xmlns="http://www.w3.org/2000/svg">
<path d="M1.91975 0.162698C1.63206 0.260266 1.22717 0.523698 0.907519 0.8164C-0.083404 1.72378 0.00183668 -0.120247 0.00183668 20.1445C0.00183668 40.419 -0.0727489 38.6726 0.886209 39.5507C1.85582 40.4385 0.875553 40.3702 14.9616 40.458L27.3215 40.5361L27.9927 42.9167C28.355 44.2241 28.7706 45.4925 28.8984 45.7364C29.2394 46.3511 29.9213 47.0146 30.5926 47.3853C31.6794 47.9805 31.9138 48 37.4012 48C42.6861 48 43.0164 47.9707 44.0286 47.5024C44.604 47.2292 45.4564 46.4975 45.7867 45.9706C46.3515 45.0925 46.458 44.5364 46.458 42.4387V40.5068L47.9284 40.4483C49.8463 40.3605 50.4004 40.2044 51.1143 39.5507C52.0732 38.6726 51.9986 40.4093 51.9986 20.1933C51.9986 -0.0226798 52.0732 1.71402 51.1143 0.826157C50.1127 -0.090977 52.6593 -0.00316628 25.9576 0.00659046C4.78597 0.00659046 2.34596 0.0261039 1.91975 0.162698ZM49.9316 1.42132C50.0914 1.52864 50.3258 1.74329 50.443 1.88964C50.6561 2.14332 50.6668 2.29942 50.6987 5.3728L50.7307 8.58277H26.0002H1.28045V5.51915C1.28045 2.33845 1.31241 2.09453 1.73862 1.66524C2.26071 1.14813 0.822278 1.1774 26.1281 1.19691L49.6439 1.21643L49.9316 1.42132ZM50.72 23.8423C50.72 33.5698 50.6881 38.0189 50.6028 38.214C50.443 38.5945 49.9955 39.0043 49.6119 39.1116C49.4308 39.1604 48.6423 39.2384 47.8751 39.2677L46.458 39.336V38.0384C46.458 36.5066 46.3301 36.1456 45.6056 35.5894C44.9983 35.1113 44.3483 34.9748 43.5385 35.1699L42.9525 35.3162L42.441 34.8479C41.8017 34.2625 41.1411 34.0576 40.3953 34.2137C40.1289 34.2625 39.8305 34.3406 39.7453 34.3796C39.6388 34.4186 39.5322 34.3406 39.4043 34.1552C39.3084 33.9991 39.0314 33.7454 38.7757 33.5893C38.4028 33.3649 38.211 33.3161 37.6782 33.3161C37.3159 33.3161 36.9217 33.3551 36.7832 33.3942L36.5488 33.4722V29.2573C36.5488 25.179 36.5381 25.0229 36.325 24.6131C35.8562 23.7155 34.6628 23.1886 33.608 23.4033C32.8408 23.5594 32.2654 23.9691 31.9245 24.5936L31.6474 25.1107V31.1794V37.2481L30.9975 36.6334C30.0492 35.726 28.9837 35.2577 27.4387 35.0821C26.842 35.0138 26.3199 35.2089 26.0322 35.5992C25.7232 36.009 25.7232 36.3407 26.0109 36.9456C26.256 37.4725 26.9592 39.1994 26.9592 39.2872C26.9592 39.3946 2.66561 39.2189 2.35661 39.1116C1.97303 38.975 1.6001 38.6433 1.42962 38.2725C1.30176 38.0091 1.28045 35.5797 1.28045 23.8521V9.75357H26.0002H50.72V23.8423ZM34.5669 24.6228C35.3021 24.9058 35.2702 24.7009 35.2702 29.9598C35.2702 36.0675 35.3554 38.7994 35.5579 38.9848C35.7923 39.1994 36.2931 39.1506 36.4848 38.9067C36.6234 38.7311 36.6553 38.3506 36.6553 36.7993C36.6553 34.926 36.6553 34.9162 36.9217 34.682C37.1987 34.4186 37.6889 34.3601 38.0511 34.5455C38.4773 34.7503 38.5519 35.1309 38.488 36.9359C38.4454 38.4189 38.456 38.653 38.6159 38.8774C38.765 39.0921 38.8716 39.1311 39.1912 39.1019C39.7666 39.0628 39.8519 38.8384 39.8519 37.1993V35.8236L40.1822 35.5699C40.619 35.2284 41.0346 35.2382 41.4714 35.5992L41.823 35.8821L41.8763 37.7164C41.9296 39.5409 41.9296 39.5604 42.1853 39.6677C42.505 39.8141 42.8459 39.7068 43.0164 39.4043C43.1017 39.258 43.1549 38.7311 43.1549 37.9993C43.1549 36.6822 43.2402 36.4773 43.8369 36.2919C44.2737 36.1651 44.636 36.2724 44.9556 36.6432C45.1901 36.9163 45.1901 36.9359 45.1581 40.7703L45.1261 44.6339L44.8384 45.1218C44.4762 45.7559 43.7623 46.3609 43.091 46.595C42.6009 46.7707 42.2279 46.7804 37.3479 46.7804C32.2441 46.7804 32.1163 46.7804 31.6368 46.5755C30.9762 46.2926 30.3262 45.7364 30.0492 45.2291C29.932 44.9949 29.4525 43.4436 28.9837 41.7752C28.2272 39.0726 27.6411 37.3261 27.2149 36.5749C27.1403 36.4285 27.0977 36.2919 27.1297 36.2724C27.2362 36.1748 28.2698 36.3895 28.8558 36.6334C29.6336 36.9554 30.2303 37.492 31.0188 38.5555L31.6474 39.4043V40.5849C31.6474 41.6288 31.6687 41.7752 31.8605 41.9508C32.1269 42.1947 32.2974 42.1947 32.649 41.9411L32.926 41.7459V33.5503C32.926 24.7107 32.9154 24.9643 33.4801 24.7107C34.0342 24.457 34.1194 24.457 34.5669 24.6228Z" fill="#FA7436"/>
<path d="M4.90336 2.62119C4.33864 2.72852 3.90179 2.97244 3.48624 3.42125C2.84693 4.10422 2.72973 5.02135 3.19855 5.85068C4.08292 7.42151 6.59752 7.43127 7.4819 5.86043C8.4302 4.20179 6.88521 2.26019 4.90336 2.62119ZM6.05411 3.89933C6.16066 3.89933 6.50163 4.5823 6.50163 4.8067C6.50163 5.74335 5.32957 6.20192 4.5624 5.56773C3.66737 4.83597 4.53044 3.51881 5.7025 3.82127C5.87298 3.8603 6.0328 3.89933 6.05411 3.89933Z" fill="#FA7436"/>
<path d="M11.2961 2.65047C9.49538 2.95293 8.76018 5.10917 10.0388 6.35803C10.9125 7.20687 12.5427 7.25565 13.4591 6.4556C14.4074 5.62628 14.5033 4.30912 13.6722 3.42125C13.0435 2.74804 12.2444 2.48461 11.2961 2.65047ZM12.628 4.10423C12.8944 4.33839 12.9476 4.46522 12.9476 4.83598C12.9476 5.21649 12.8944 5.32382 12.596 5.56774C11.8288 6.20192 10.6568 5.74336 10.6568 4.80671C10.6568 4.38717 11.0191 3.91885 11.424 3.82128C11.9141 3.69444 12.255 3.7725 12.628 4.10423Z" fill="#FA7436"/>
<path d="M17.828 2.64136C15.4519 3.05114 15.1216 6.03671 17.3698 6.90506C17.9559 7.12946 19.0533 7.03189 19.5967 6.70016C20.2787 6.28062 20.609 5.75376 20.6516 4.96346C20.6836 4.42684 20.6516 4.21219 20.4598 3.86095C19.9803 2.94382 18.9148 2.45598 17.828 2.64136ZM19.1599 4.1439C19.5222 4.53417 19.4902 5.19763 19.0853 5.56838C18.8296 5.79279 18.6804 5.85133 18.2968 5.85133C17.487 5.85133 16.9543 5.24641 17.1674 4.54392C17.4231 3.72436 18.5419 3.49995 19.1599 4.1439Z" fill="#FA7436"/>
<path d="M27.5985 4.16305C27.1723 4.29965 27.0338 4.83627 27.3641 5.0997C27.5452 5.25581 28.4509 5.26556 38.2322 5.26556H48.9086L49.0791 5.02165C49.3029 4.70943 49.207 4.35819 48.8554 4.21184C48.6529 4.12403 45.9146 4.09475 38.1683 4.10451C32.4465 4.10451 27.6837 4.13378 27.5985 4.16305Z" fill="#FA7436"/>
<path d="M12.5109 15.773C11.6478 16.7292 10.9233 17.5292 10.9126 17.5487C10.8913 17.5683 10.6143 17.3731 10.284 17.1292C9.95367 16.8853 9.61271 16.6804 9.53812 16.6804C9.45288 16.6804 9.26109 16.778 9.10126 16.9048C8.66441 17.2463 8.80292 17.5292 9.76188 18.2317C10.5504 18.8171 10.8807 18.9244 11.3388 18.7683C11.6372 18.661 15.0255 14.8656 15.0255 14.6315C15.0255 14.2412 14.8337 14.0461 14.4501 14.0461C14.1092 14.0461 13.9813 14.1631 12.5109 15.773Z" fill="#FA7436"/>
<path d="M6.81017 14.5837C6.30938 14.8374 6.27742 15.052 6.30938 18.2815L6.34135 21.2866L6.63969 21.5207L6.93803 21.7549H10.3477H13.7573L14.013 21.511C14.2687 21.2866 14.2794 21.228 14.2794 20.0182C14.2794 18.9254 14.2581 18.74 14.0876 18.6035C13.8212 18.3791 13.4696 18.3986 13.2139 18.6327C13.0327 18.7986 13.0008 18.9547 13.0008 19.706V20.5841H10.2837H7.56668L7.58799 18.1156L7.61996 15.6569L9.11167 15.6276C10.4755 15.6081 10.614 15.5886 10.7952 15.4032C11.0402 15.1203 11.0296 14.9642 10.7099 14.6812C10.4542 14.4471 10.4222 14.4373 8.77071 14.4373C7.52406 14.4471 7.01262 14.4764 6.81017 14.5837Z" fill="#FA7436"/>
<path d="M20.7789 14.8955C20.2568 15.0712 20.0863 15.5492 20.438 15.8322C20.6191 15.9883 21.6739 15.998 33.3839 15.998C44.8274 15.998 46.138 15.9785 46.2872 15.8419C46.4683 15.6858 46.5109 15.3443 46.3724 15.1492C46.3298 15.0907 46.1593 14.9833 45.9995 14.9346C45.6798 14.8272 21.0986 14.7882 20.7789 14.8955Z" fill="#FA7436"/>
<path d="M20.4594 19.9003C20.193 20.1442 20.1823 20.5052 20.4381 20.7101C20.6192 20.8662 21.6741 20.876 33.3733 20.876C45.5734 20.876 46.1168 20.8662 46.2766 20.7004C46.5217 20.4564 46.5004 20.1345 46.2447 19.9003C46.0316 19.7052 45.8931 19.7052 33.352 19.7052C20.811 19.7052 20.6725 19.7052 20.4594 19.9003Z" fill="#FA7436"/>
<path d="M12.6176 28.0674C11.8078 28.965 11.0833 29.7651 11.0193 29.8431C10.9128 29.97 10.8275 29.9407 10.4333 29.648C9.63418 29.0528 9.32518 29.004 8.96291 29.4041C8.70718 29.687 8.92029 30.0285 9.76204 30.6334C10.7103 31.3261 11.0939 31.3944 11.6054 30.9456C11.7865 30.7993 12.6176 29.9114 13.47 28.9748C15.0789 27.2088 15.2388 26.9356 14.8552 26.5941C14.7699 26.5063 14.5568 26.438 14.397 26.438C14.1413 26.438 13.8856 26.6722 12.6176 28.0674Z" fill="#FA7436"/>
<path d="M7.07706 26.8958C6.9492 26.9153 6.7361 27.0421 6.59758 27.1787L6.34186 27.4324V30.535V33.6377L6.59758 33.8913L6.8533 34.145H10.3056H13.7578L14.0135 33.9011C14.2692 33.6767 14.2799 33.6182 14.2799 32.3986C14.2799 31.1985 14.2692 31.1204 14.0455 30.9838C13.7152 30.7692 13.4701 30.7887 13.2144 31.0424C13.0333 31.218 13.0013 31.3839 13.0013 32.1156V32.9742H10.2842H7.56719L7.5885 30.5058L7.62047 28.0471L9.13349 28.0178C10.6252 27.9983 10.6572 27.9885 10.8276 27.7446C11.0514 27.4421 10.9022 27.0616 10.4867 26.925C10.231 26.8275 7.54588 26.808 7.07706 26.8958Z" fill="#FA7436"/>
<path d="M20.4274 27.4914C20.2036 27.7158 20.193 27.9987 20.3954 28.2524C20.5446 28.428 20.7364 28.4378 24.6894 28.467C26.9589 28.4768 28.9301 28.467 29.058 28.4378C29.6014 28.3207 29.8038 27.7841 29.4309 27.4816C29.2498 27.3353 28.781 27.3157 24.9132 27.3157C20.8642 27.3157 20.5872 27.3255 20.4274 27.4914Z" fill="#FA7436"/>
<path d="M40.1075 27.5595C39.905 27.8424 39.9903 28.1449 40.3312 28.3497C40.5337 28.4766 41.0132 28.4863 43.3679 28.4668C45.9891 28.4376 46.1702 28.4278 46.3087 28.2522C46.5112 27.9887 46.5005 27.6668 46.2661 27.4814C46.0956 27.335 45.7227 27.3155 43.1762 27.3155H40.278L40.1075 27.5595Z" fill="#FA7436"/>
<path d="M20.6726 32.1651C20.2464 32.3017 20.1079 32.8383 20.4382 33.1017C20.598 33.2383 20.8857 33.2676 22.0152 33.2676C23.5388 33.2676 23.6561 33.2286 23.6561 32.7212C23.6561 32.1943 23.379 32.0968 22.0045 32.1065C21.3652 32.1065 20.7579 32.1358 20.6726 32.1651Z" fill="#FA7436"/>
</svg>
